<?xml version="1.0" encoding="utf-8"?>
<!-- Generator: Adobe Illustrator 16.0.4, SVG Export Plug-In . SVG Version: 6.00 Build 0)  -->
<!DOCTYPE svg PUBLIC "-//W3C//DTD SVG 1.1//EN" "http://www.w3.org/Graphics/SVG/1.1/DTD/svg11.dtd">
<svg version="1.1" id="Layer_1" xmlns="http://www.w3.org/2000/svg" xmlns:xlink="http://www.w3.org/1999/xlink" x="0px" y="0px"
	 width="312.25px" height="87.5px" viewBox="-0.25 -1.076 312.25 87.5" enable-background="new -0.25 -1.076 312.25 87.5"
	 xml:space="preserve">
<g id="XMLID_382_">
	<path id="XMLID_426_" fill="#48525A" d="M202.359,85.045h1.908c0,0,0.006-7.259,0.006-8.146c0.543,0.697,6.42,8.146,6.42,8.146
		l2.058,0.003l0.006-11.006h-1.907c0,0-0.006,7.263-0.006,8.146c-0.545-0.69-6.42-8.148-6.42-8.148h-2.059L202.359,85.045z"/>
	<path id="XMLID_425_" fill="#48525A" d="M215.316,85.047l8.854,0.005v-1.749c0,0-6.596,0-6.942,0v-3.062h6.592v-1.743h-6.592
		c0-0.316,0-2.395,0-2.705c0.354,0,6.801,0,6.801,0v-1.745l-8.709-0.007L215.316,85.047z"/>
	<path id="XMLID_424_" fill="#48525A" d="M225.91,75.797c0,0,3.587,0,3.919,0c0,0.363-0.004,9.256-0.004,9.256h1.911
		c0,0,0.007-8.893,0.007-9.256c0.33,0.002,3.918,0.002,3.918,0.002v-1.747l-9.751-0.005V75.797z"/>
	<path id="XMLID_423_" fill="#48525A" d="M240.729,85.057h1.971c0,0,2.451-7.563,2.744-8.44c0.281,0.877,2.752,8.445,2.752,8.445
		h1.951l3.644-11.003h-1.992c0,0-2.252,7.354-2.524,8.255c-0.299-0.898-2.726-8.259-2.726-8.259h-2.099c0,0-2.359,7.348-2.651,8.25
		c-0.278-0.91-2.534-8.255-2.534-8.255h-2.062L240.729,85.057z"/>
	<path id="XMLID_420_" fill="#48525A" d="M260.316,73.795c-1.864,0-3.346,0.541-4.4,1.625c-1,1.023-1.553,2.497-1.553,4.139
		c0,1.645,0.551,3.116,1.548,4.144c1.06,1.08,2.538,1.63,4.401,1.63c4.391,0.005,5.951-3.104,5.951-5.767
		C266.268,76.904,264.707,73.795,260.316,73.795 M257.312,82.461c-0.689-0.707-1.043-1.68-1.043-2.896v-0.002
		c0-1.218,0.354-2.192,1.045-2.897c0.717-0.735,1.756-1.124,3-1.124h0.002c2.494,0.004,4.039,1.546,4.039,4.023
		c0,2.479-1.549,4.021-4.041,4.021C259.064,83.587,258.029,83.194,257.312,82.461"/>
	<path id="XMLID_417_" fill="#48525A" d="M268.393,85.065l1.908,0.005c0,0,0.004-4.167,0.004-4.511h3.838
		c1.074,0,1.713,0.381,1.816,2.31l0.02,0.344c0.061,1.073,0.084,1.474,0.345,1.794l0.056,0.063h2.119l-0.266-0.312
		c-0.312-0.377-0.363-0.858-0.446-2.77c-0.058-1.18-0.534-1.983-1.271-2.297c0.943-0.469,1.502-1.381,1.502-2.609
		c0-1.391-0.789-3.018-3.017-3.018l-6.604-0.004L268.393,85.065z M270.305,75.81c0.34,0,4.155,0,4.155,0
		c1.062,0.006,1.647,0.54,1.647,1.514c-0.002,0.559-0.223,1.493-1.691,1.493c0,0-3.775-0.005-4.111-0.005
		C270.305,78.495,270.305,76.131,270.305,75.81"/>
	<path id="XMLID_416_" fill="#48525A" d="M280.736,85.071l1.912,0.006c0,0,0-3.412,0-3.573c0.104-0.101,1.449-1.317,1.683-1.528
		c0.229,0.285,4.173,5.104,4.173,5.104h2.607c0,0-5.113-6.116-5.336-6.393c0.26-0.234,5.154-4.61,5.154-4.61h-2.738
		c0,0-4.99,4.594-5.543,5.102V74.07h-1.907L280.736,85.071z"/>
	<path id="XMLID_415_" fill="#48525A" d="M292.593,77.223c0,2.426,2.435,2.838,3.232,2.973l2.351,0.398
		c1.264,0.224,1.782,0.625,1.778,1.394c0,0.357-0.124,0.663-0.368,0.915c-0.439,0.449-1.236,0.695-2.252,0.695
		c-1.166-0.004-3.125-0.287-3.152-2.208l-0.006-0.188h-1.904v0.188c0,1.093,0.326,1.979,0.971,2.638
		c1.06,1.091,2.75,1.32,3.975,1.32c0.941,0,2.682-0.165,3.745-1.259c0.603-0.611,0.906-1.426,0.906-2.413
		c0-2.311-2.45-2.76-3.255-2.908c-0.021-0.002-2.562-0.447-2.562-0.447c-1.39-0.242-1.547-0.811-1.547-1.215
		c0-0.362,0.121-0.673,0.365-0.923c0.384-0.394,1.079-0.632,1.861-0.632c2.343,0,2.773,1.036,2.896,1.809l0.021,0.158l1.896,0.005
		l-0.016-0.203c-0.122-2.229-1.803-3.512-4.596-3.512C294.256,73.803,292.593,75.111,292.593,77.223"/>
	<path id="XMLID_412_" fill="#48525A" d="M113.211,28.426c-1.854-1.904-4.836-3.06-8.217-3.06c-3.644,0-6.363,0.952-8.882,4.075
		v-2.029c-0.774-1.025-1.971-1.694-3.33-1.694c-1.366,0-2.534,0.665-3.301,1.698v46.715h6.762V56.677
		c2.453,2.988,5.239,3.939,8.816,3.939c3.38,0,6.298-1.154,8.151-3.059c3.385-3.463,3.78-9.373,3.78-14.604
		C116.992,37.729,116.596,31.89,113.211,28.426 M103.271,54.438c-6.101,0-7.027-5.368-7.027-11.479s0.927-11.407,7.027-11.407
		c6.097,0,6.958,5.296,6.958,11.407C110.229,49.069,109.368,54.438,103.271,54.438"/>
	<path id="XMLID_409_" fill="#48525A" d="M141.734,60.21v-3.124c-2.454,2.514-4.775,3.531-8.952,3.531
		c-4.177,0-6.958-1.02-9.014-3.123c-1.724-1.838-2.655-4.484-2.655-7.402c0-5.775,3.914-9.917,11.606-9.917h8.879V37.73
		c0-4.347-2.122-6.453-7.356-6.453c-3.712,0-5.501,0.886-7.36,3.329l-4.439-4.277c3.184-3.805,6.495-4.96,12.066-4.96
		c9.21,0,13.851,4.01,13.851,11.818V60.21H141.734z M141.599,44.998h-7.889c-3.977,0-6.032,1.832-6.032,4.955
		c0,3.127,1.924,4.894,6.167,4.894c2.584,0,4.506-0.207,6.298-1.972c0.993-1.02,1.456-2.648,1.456-5.095V44.998z"/>
	<path id="XMLID_408_" fill="#48525A" d="M165.427,54.3c-2.721,0-3.647-1.358-3.647-4.005V11.861
		c-0.786-1.048-2.006-1.728-3.396-1.728c-1.391,0-2.584,0.677-3.366,1.731v38.838c0,5.091,2.782,9.508,9.214,9.508h4.177V54.3
		H165.427z"/>
	<path id="XMLID_405_" fill="#48525A" d="M194.837,56.543c-2.188,2.305-5.501,4.071-10.075,4.071c-4.57,0-7.82-1.769-10.008-4.071
		c-3.184-3.396-3.979-7.744-3.979-13.584c0-5.773,0.795-10.121,3.979-13.515c2.188-2.312,5.438-4.075,10.008-4.075
		c4.574,0,7.889,1.765,10.075,4.075c3.183,3.394,3.976,7.74,3.976,13.515C198.812,48.799,198.02,53.146,194.837,56.543
		 M189.732,33.52c-1.26-1.292-2.981-1.972-4.971-1.972c-1.986,0-3.646,0.68-4.904,1.972c-2.057,2.105-2.321,5.703-2.321,9.439
		c0,3.732,0.267,7.336,2.321,9.439c1.261,1.287,2.918,2.035,4.904,2.035c1.987,0,3.711-0.748,4.971-2.035
		c2.057-2.104,2.322-5.707,2.322-9.439C192.055,39.223,191.789,35.625,189.732,33.52"/>
	<path id="XMLID_404_" fill="#48525A" d="M248.165,54.3c-2.72,0-3.644-1.358-3.644-4.005l-0.006-38.436
		c-0.785-1.048-2.01-1.728-3.396-1.728c-1.392,0-2.584,0.677-3.366,1.73v38.839c0,5.091,2.785,9.508,9.217,9.508h4.176V54.3H248.165
		z"/>
	<path id="XMLID_401_" fill="#48525A" d="M223.553,60.21v-3.124c-2.453,2.514-4.771,3.531-8.947,3.531
		c-4.174,0-6.959-1.02-9.016-3.123c-1.723-1.838-2.65-4.484-2.65-7.402c0-5.775,3.91-9.917,11.603-9.917h8.881V37.73
		c0-4.347-2.121-6.453-7.354-6.453c-3.713,0-5.502,0.886-7.36,3.329l-4.438-4.277c3.183-3.805,6.496-4.96,12.062-4.96
		c9.216,0,13.855,4.01,13.855,11.818V60.21H223.553z M223.421,44.998h-7.89c-3.977,0-6.03,1.832-6.03,4.955
		c0,3.127,1.923,4.894,6.166,4.894c2.585,0,4.506-0.207,6.294-1.972c0.997-1.02,1.46-2.648,1.46-5.095V44.998L223.421,44.998z"/>
	<path id="XMLID_400_" fill="#48525A" d="M269.93,31.686V26.39h-6.494V15.957c-0.787-1.043-2.008-1.726-3.396-1.726
		c-1.394,0-2.582,0.679-3.362,1.729V26.39h-3.845v5.296h3.845v18.949c0,4.955,2.913,9.575,9.215,9.575h4.041V54.3h-2.785
		c-2.517,0-3.709-1.495-3.709-4.005V31.686H269.93z"/>
	<path id="XMLID_397_" fill="#48525A" d="M298.039,56.543c-2.188,2.305-5.501,4.071-10.077,4.071c-4.573,0-7.817-1.769-10.008-4.071
		c-3.181-3.396-3.974-7.744-3.974-13.584c0-5.773,0.793-10.121,3.974-13.515c2.188-2.312,5.435-4.075,10.008-4.075
		c4.576,0,7.89,1.765,10.077,4.075c3.184,3.394,3.98,7.74,3.98,13.515C302.02,48.799,301.223,53.146,298.039,56.543 M292.936,33.52
		c-1.259-1.292-2.98-1.972-4.974-1.972c-1.983,0-3.644,0.68-4.901,1.972c-2.055,2.105-2.321,5.703-2.321,9.439
		c0,3.732,0.269,7.336,2.321,9.439c1.26,1.287,2.918,2.035,4.901,2.035c1.991,0,3.715-0.748,4.974-2.035
		c2.059-2.104,2.323-5.707,2.323-9.439C295.259,39.223,294.992,35.625,292.936,33.52"/>
	<path id="XMLID_392_" fill="#48525A" d="M307.748,80.726c-1.798,0-3.252-1.489-3.252-3.329c0-1.843,1.454-3.331,3.252-3.331
		c1.797,0,3.252,1.488,3.252,3.331C311,79.236,309.545,80.726,307.748,80.726 M307.748,74.553c-1.51,0-2.73,1.281-2.73,2.844
		c0,1.565,1.223,2.843,2.73,2.843s2.737-1.275,2.737-2.843C310.485,75.834,309.258,74.553,307.748,74.553 M308.538,79.217
		l-0.817-1.489h-0.538v1.489h-0.491v-3.651h1.213c0.614,0,1.12,0.479,1.12,1.096c0,0.531-0.323,0.864-0.767,1.003l0.855,1.555
		L308.538,79.217L308.538,79.217z M307.846,76.016h-0.663v1.278h0.663c0.396,0,0.673-0.268,0.673-0.635
		C308.519,76.289,308.242,76.016,307.846,76.016"/>
	<g id="XMLID_383_">
		<path id="XMLID_384_" fill="#48525A" d="M69.688,44.046c0.265-1.521,1.664-2.764,3.17-2.823v-21.74
			c0-5.593-4.494-10.139-10.03-10.139H18.627c-5.537,0-10.031,4.545-10.031,10.139v44.676c0,5.599,4.495,10.144,10.031,10.144
			h44.202c5.536,0,10.03-4.545,10.03-10.144V50.06c-0.458,0.251-0.961,0.396-1.478,0.396c-1.547,0-2.577-1.271-2.306-2.824
			L69.688,44.046 M17.31,49.656l-0.613,3.576c-0.271,1.563-1.743,2.826-3.288,2.826c-1.544,0-2.574-1.263-2.306-2.826l0.615-3.576
			c0.272-1.562,1.735-2.829,3.283-2.829C16.548,46.826,17.58,48.094,17.31,49.656 M26.815,49.656l-2.161,12.524
			c-0.271,1.562-1.738,2.827-3.282,2.827c-1.547,0-2.574-1.266-2.311-2.827l2.161-12.524c0.266-1.562,1.736-2.829,3.282-2.829
			S27.08,48.094,26.815,49.656 M37.305,43.942l-4.14,24c-0.263,1.565-1.736,2.828-3.277,2.828c-1.547,0-2.582-1.263-2.313-2.828
			l4.136-24c0.271-1.562,1.742-2.824,3.279-2.824C36.54,41.116,37.575,42.381,37.305,43.942 M48.779,32.518L43.204,64.87
			c-0.271,1.562-1.74,2.82-3.285,2.82c-1.543,0-2.579-1.258-2.307-2.82l5.575-32.354c0.268-1.545,1.738-2.814,3.281-2.814
			C48.009,29.701,49.048,30.973,48.779,32.518 M58.807,29.456l-4.138,24c-0.266,1.562-1.738,2.831-3.281,2.831
			s-2.575-1.27-2.306-2.831l4.13-24c0.27-1.556,1.745-2.826,3.287-2.826C58.042,26.629,59.076,27.902,58.807,29.456 M67.321,35.225
			l-2.158,12.521c-0.27,1.562-1.742,2.827-3.283,2.827c-1.544,0-2.583-1.265-2.312-2.827l2.159-12.521
			c0.272-1.562,1.744-2.827,3.287-2.827C66.551,32.397,67.588,33.663,67.321,35.225"/>
	</g>
</g>
</svg>
